<svg width="30" height="30" viewBox="0 0 30 30" fill="none" xmlns="http://www.w3.org/2000/svg">
<path fill-rule="evenodd" clip-rule="evenodd" d="M13.4898 0V11.0096C13.4898 11.3873 13.796 11.6934 14.1736 11.6934C14.5513 11.6934 14.8574 11.3873 14.8574 11.0096V0H28.4414C29.2801 0 29.96 0.679914 29.96 1.51862V14.6024H18.9346C18.5569 14.6024 18.2508 14.9085 18.2508 15.2862C18.2508 15.6638 18.5569 15.97 18.9346 15.97H29.96V28.4414C29.96 29.2801 29.2801 29.96 28.4414 29.96H1.51863C0.679912 29.96 0 29.2801 0 28.4414V1.51862C0 0.679914 0.679912 0 1.51863 0H13.4898ZM14.8574 19.1175C14.8574 18.7399 14.5513 18.4337 14.1736 18.4337C13.796 18.4337 13.4898 18.7399 13.4898 19.1175L13.4899 29.9597H14.8574V19.1175Z" fill="#FF4500"/>
</svg>
