<svg width="222" height="31" viewBox="0 0 222 31" fill="none" xmlns="http://www.w3.org/2000/svg">
    <path fill-rule="evenodd" clip-rule="evenodd" d="M13.4898 0.663086V11.6727C13.4898 12.0504 13.796 12.3565 14.1736 12.3565C14.5513 12.3565 14.8574 12.0504 14.8574 11.6727L14.8574 0.663086H28.4414C29.2801 0.663086 29.96 1.343 29.96 2.18171V15.2655L18.9346 15.2655C18.5569 15.2655 18.2508 15.5716 18.2508 15.9493C18.2508 16.3269 18.5569 16.6331 18.9346 16.6331L29.96 16.6331V29.1045C29.96 29.9432 29.2801 30.6231 28.4414 30.6231H1.51863C0.679912 30.6231 0 29.9432 0 29.1045V2.18171C0 1.343 0.679912 0.663086 1.51863 0.663086H13.4898ZM14.8574 19.7806C14.8574 19.403 14.5513 19.0968 14.1736 19.0968C13.796 19.0968 13.4898 19.403 13.4898 19.7806L13.4899 30.6228H14.8574V19.7806Z" fill="#FF4500"/>
    <path d="M50.7801 14.3945L47.5961 17.9893V23.8438H44.2581V5.53578H47.5961V14.0093L55.0682 5.53578H59.228L53.1681 12.2119L59.6645 23.8438H55.8899L50.7801 14.3945ZM63.5356 7.48726C61.9179 7.48726 61.3016 6.94803 61.3016 5.25333C61.3016 3.60998 62.0463 3.04507 63.5356 3.04507C65.0248 3.04507 65.7695 3.60998 65.7695 5.25333C65.7695 6.84532 65.0505 7.48726 63.5356 7.48726ZM61.7895 23.8438V9.07926H65.2046V23.8438H61.7895ZM72.0789 23.8438H68.7152V9.07926H71.5397L71.8478 11.7754C72.6438 9.92661 74.1844 8.71977 76.5211 8.71977C79.0632 8.71977 80.5268 9.87526 81.1687 11.8011C81.9133 9.90093 83.531 8.71977 85.9447 8.71977C89.4111 8.71977 91.1829 10.928 91.1829 14.5999V23.8438H87.8191V15.5243C87.8191 13.1876 86.9975 11.647 84.7379 11.647C82.5296 11.647 81.6566 13.239 81.6566 15.4729V23.8438H78.3185V15.3959C78.3185 14.7026 78.2415 14.0863 78.0361 13.4958C77.7022 12.366 76.8549 11.647 75.3143 11.647C73.106 11.647 72.0789 13.3931 72.0789 15.9351V23.8438ZM114.593 23.8438H101.6V5.53578H114.156V8.43732H104.861V13.1363H112.744V16.0635H104.861V20.8395H114.593V23.8438ZM122.537 18.5542L118.84 23.8438H114.757L120.637 16.1149L115.373 9.07926H119.327L122.563 13.7782L125.901 9.07926H129.804L124.463 16.0892L130.163 23.8438H126.209L122.537 18.5542ZM136.511 24.2289C131.787 24.2289 129.091 21.5841 129.091 16.7568V16.3716C129.091 14.7283 129.424 13.316 130.066 12.1862C131.376 9.92661 133.687 8.71977 136.537 8.71977C140.62 8.71977 143.418 10.6456 143.752 14.9594V15.0107H140.234V14.9337C139.926 12.6227 138.617 11.5956 136.563 11.5956C134.2 11.5956 132.583 13.239 132.583 16.3716V16.7054C132.583 19.6327 134.072 21.276 136.537 21.276C138.694 21.276 139.926 20.1462 140.26 17.8866V17.8609H143.778V17.938C143.444 22.3031 140.594 24.2289 136.511 24.2289ZM148.392 23.8438H145.157V4.07217H148.392V11.647C149.291 9.84958 150.96 8.71977 153.296 8.71977C156.866 8.71977 158.637 10.9794 158.637 14.6512V23.8438H155.248V15.5756C155.248 13.239 154.426 11.647 151.987 11.647C149.625 11.647 148.392 13.4701 148.392 16.1149V23.8438ZM170.695 20.8909C169.694 22.8167 167.717 24.2289 164.661 24.2289C161.452 24.2289 159.834 22.6883 159.834 20.2746C159.834 18.6312 160.553 17.3987 161.76 16.6541C162.171 16.3716 162.607 16.1662 163.018 16.0378C163.891 15.7297 164.995 15.5243 166.844 15.2418C169.489 14.908 170.541 14.5485 170.541 13.3417C170.541 12.1092 169.745 11.3389 167.434 11.3389C164.995 11.3389 163.891 12.3916 163.788 14.2918H160.322C160.553 10.928 163.018 8.71977 167.255 8.71977C168.872 8.71977 170.105 8.92519 171.081 9.36171C173.006 10.1834 173.777 11.7497 173.777 13.8809V23.8438H171.055L170.695 20.8909ZM165.817 21.6355C166.793 21.6355 167.614 21.4044 168.333 20.9679C169.771 20.0692 170.567 18.5799 170.567 17.1676V16.3716C169.951 16.8081 168.924 17.1163 167.589 17.3217C165.791 17.6041 165.072 17.8096 164.379 18.2461C163.788 18.6312 163.506 19.1448 163.506 19.7867C163.506 21.0192 164.276 21.6355 165.817 21.6355ZM179.239 23.8438H175.85V9.07926H178.7L179.008 12.0322C179.804 10.0036 181.473 8.71977 184.015 8.71977C187.585 8.71977 189.485 11.0821 189.485 14.754V23.8438H186.095V15.5756C186.095 13.162 185.325 11.647 182.911 11.647C180.395 11.647 179.239 13.3931 179.239 16.1405V23.8438ZM197.179 30.5455C195.33 30.5455 193.918 30.3915 192.916 30.0834C190.914 29.4928 190.297 28.4143 190.297 27.0277C190.297 25.4357 191.273 24.2803 193.61 23.741C191.607 23.4586 190.734 22.4572 190.734 20.9679C190.734 19.4529 191.864 18.4515 193.918 18.015C191.889 17.3731 190.888 15.9865 190.888 13.8296C190.888 10.8767 193.096 9.28468 196.614 9.05358L197.359 9.00223C198.232 8.92519 198.848 8.84816 199.284 8.66842C200.106 8.36029 200.312 7.667 200.312 6.25474V6.02365H204.214V6.51152C204.214 8.87384 203.033 9.51577 199.875 9.54145C202.622 9.92661 204.112 11.5956 204.112 13.8296V13.9323C204.112 17.0649 201.621 18.965 197.436 18.965H197.205C196.177 18.965 195.433 18.9907 194.919 19.0934C193.892 19.2732 193.661 19.5556 193.661 20.0435C193.661 20.7368 194.277 21.0192 196.023 21.0192H199.002C203.136 21.0192 204.933 22.7139 204.933 25.3587C204.933 28.5941 202.494 30.5455 197.359 30.5455H197.179ZM197.436 16.5771C199.67 16.5771 200.748 15.704 200.748 13.958V13.8809C200.748 11.8267 199.31 11.1334 197.487 11.1334C195.664 11.1334 194.252 12.0065 194.252 13.9066V13.9836C194.252 15.704 195.433 16.5771 197.436 16.5771ZM197.384 27.7724C200.44 27.7724 201.801 26.9507 201.801 25.5385C201.801 24.5114 201.03 23.8438 198.874 23.8438H196.229C194.406 24.0235 193.61 24.8195 193.61 25.8466V25.8979C193.61 26.8223 194.534 27.7724 196.845 27.7724H197.384ZM219.432 19.4786C218.585 22.4828 216.197 24.2289 212.32 24.2289C207.338 24.2289 204.899 21.353 204.899 16.7825V16.423C204.899 14.831 205.207 13.5214 205.823 12.3403C207.056 10.0293 209.315 8.71977 212.422 8.71977C214.964 8.71977 216.762 9.59281 217.943 11.0051C219.124 12.4173 219.638 14.2404 219.638 16.1405V17.7069H208.237C208.519 20.1205 210.009 21.4558 212.448 21.4558C214.246 21.4558 215.298 20.7625 215.812 19.4786H219.432ZM212.448 11.3902C210.111 11.3902 208.648 12.7254 208.263 15.0621H216.274C216.043 12.8025 214.81 11.3902 212.448 11.3902Z" fill="white"/>
</svg>
