<svg width="31" height="33" viewBox="0 0 31 33" fill="none" xmlns="http://www.w3.org/2000/svg">
<path d="M5.52966 5.01836C6.32539 4.74135 7.1045 4.81605 7.88465 5.05778C8.56818 5.27047 9.21848 5.56927 9.87293 5.85666C11.1361 6.41068 12.3266 5.99879 12.8761 4.82435C13.3883 3.73083 12.9187 2.43396 11.7355 1.87268C10.544 1.30724 9.26938 0.980432 7.95632 0.845558C5.5868 0.602784 3.34505 1.03749 1.27158 2.22957C0.486242 2.68088 -0.00719238 3.34903 7.92839e-05 4.29523C0.00735095 5.17191 0.431185 5.81931 1.18121 6.24364C1.87721 6.63685 2.58152 6.5995 3.2661 6.19073C3.52892 6.03407 3.78862 5.87118 3.95691 5.76743C4.53864 5.46863 5.00922 5.19888 5.52966 5.01836Z" fill="#2432F4"/>
<path d="M15.967 28.4534C14.5241 30.9745 12.4184 32.4581 10.0375 32.6303C7.65548 32.8036 5.34101 31.6416 3.52102 29.3581C1.7914 27.1866 0.699607 24.2308 0.447176 21.0322C0.196823 17.8336 0.812837 14.7533 2.18407 12.3567C3.62697 9.83555 5.73264 8.35297 8.11359 8.17971C11.6455 7.92241 15.0154 10.6697 16.6994 15.1766C17.2385 16.6197 17.5772 18.1687 17.7039 19.7779C17.9542 22.9765 17.3393 26.0568 15.967 28.4534ZM8.25487 9.9808C6.52733 10.1063 4.95561 11.26 3.82954 13.2282C2.63179 15.3208 2.09681 18.0442 2.32015 20.8973C2.54349 23.7504 3.50128 26.3659 5.01275 28.2615C6.43488 30.0449 8.16865 30.9569 9.89619 30.8313C11.1459 30.74 12.3125 30.1103 13.29 29.023C8.30162 29.5106 4.71461 20.529 4.71461 20.529L10.9838 21.1909C11.0836 21.2013 11.1345 21.0737 11.0524 21.0114L5.99234 17.1727C8.29019 12.5953 11.1615 12.4698 14.4389 14.634C12.9731 11.6024 10.6327 9.80858 8.25487 9.98184V9.97976V9.9808Z" fill="#2432F4"/>
<path d="M27.7464 28.4534C26.3034 30.9745 24.1978 32.4581 21.8168 32.6303C19.4348 32.8036 17.1204 31.6416 15.3004 29.3581C13.5707 27.1866 12.479 24.2308 12.2265 21.0322C11.9762 17.8336 12.5912 14.7533 13.9634 12.3567C15.4063 9.83555 17.512 8.35297 19.8929 8.17971C23.4249 7.92241 26.7948 10.6697 28.4787 15.1766C29.0179 16.6197 29.3565 18.1687 29.4832 19.7779C29.7336 22.9765 29.1186 26.0568 27.7464 28.4534ZM20.0342 9.9808C18.3067 10.1063 16.735 11.26 15.6089 13.2282C14.4111 15.3208 13.8762 18.0442 14.0995 20.8973C14.3228 23.7504 15.2806 26.3659 16.7921 28.2615C18.2142 30.0449 19.948 30.9569 21.6755 30.8313C22.9252 30.74 24.0918 30.1103 25.0693 29.023C20.081 29.5106 16.494 20.529 16.494 20.529L22.7632 21.1909C22.8629 21.2013 22.9138 21.0737 22.8317 21.0114L17.7717 17.1727C20.0695 12.5953 22.9408 12.4698 26.2183 14.634C24.7525 11.6024 22.4121 9.80858 20.0342 9.98184V9.97976V9.9808Z" fill="#2432F4"/>
<path d="M22.7659 4.38734C23.5679 4.33858 24.2628 4.63945 24.9131 5.11047C25.4834 5.5234 26.0008 6.01413 26.5254 6.49345C27.5372 7.41786 28.736 7.34835 29.5504 6.32227C30.3087 5.36673 30.2204 3.92254 29.2834 3.01266C28.3412 2.09655 27.2588 1.39728 26.0911 0.880609C23.9834 -0.052098 21.8144 -0.26271 19.5996 0.339037C18.7603 0.567286 18.1318 1.09848 17.8887 2.05505C17.6643 2.94211 17.8814 3.71816 18.4569 4.36451C18.9909 4.96315 19.6464 5.12915 20.3818 4.91542C20.6644 4.83346 20.9449 4.74424 21.1267 4.68821C21.7385 4.55541 22.2413 4.4195 22.7659 4.38838V4.38734Z" fill="#2432F4"/>
</svg>
