<svg xmlns="http://www.w3.org/2000/svg" version="1.1" xmlns:xlink="http://www.w3.org/1999/xlink" xmlns:svgjs="http://svgjs.dev/svgjs" viewBox="0 0 800 800" opacity="1"><defs><linearGradient x1="50%" y1="0%" x2="50%" y2="100%" id="hhhorizon-grad"><stop stop-color="#0d111c" stop-opacity="1" offset="25%" data-darkreader-inline-stopcolor="" style="--darkreader-inline-stopcolor: #0a0e16;"></stop><stop stop-color="#131a2a" stop-opacity="1" offset="100%" data-darkreader-inline-stopcolor="" style="--darkreader-inline-stopcolor: #0f1522;"></stop></linearGradient><linearGradient x1="50%" y1="0%" x2="50%" y2="100%" id="hhhorizon-grad2"><stop stop-color="#131a2a" stop-opacity="1" offset="0%" data-darkreader-inline-stopcolor="" style="--darkreader-inline-stopcolor: #0f1522;"></stop><stop stop-color="#0d111c" stop-opacity="1" offset="75%" data-darkreader-inline-stopcolor="" style="--darkreader-inline-stopcolor: #0a0e16;"></stop></linearGradient><clipPath id="SvgjsClipPath1059"><rect width="800" height="36" x="0" y="0"></rect><rect width="800" height="35" x="0" y="23"></rect><rect width="800" height="34" x="0" y="46"></rect><rect width="800" height="33" x="0" y="69"></rect><rect width="800" height="32" x="0" y="91"></rect><rect width="800" height="31" x="0" y="114"></rect><rect width="800" height="30" x="0" y="137"></rect><rect width="800" height="29" x="0" y="160"></rect><rect width="800" height="28" x="0" y="183"></rect><rect width="800" height="27" x="0" y="206"></rect><rect width="800" height="26" x="0" y="229"></rect><rect width="800" height="25" x="0" y="251"></rect><rect width="800" height="24" x="0" y="274"></rect><rect width="800" height="23" x="0" y="297"></rect><rect width="800" height="22" x="0" y="320"></rect><rect width="800" height="21" x="0" y="343"></rect><rect width="800" height="20" x="0" y="366"></rect><rect width="800" height="19" x="0" y="389"></rect><rect width="800" height="18" x="0" y="411"></rect><rect width="800" height="17" x="0" y="434"></rect><rect width="800" height="16" x="0" y="457"></rect><rect width="800" height="15" x="0" y="480"></rect><rect width="800" height="14" x="0" y="503"></rect><rect width="800" height="13" x="0" y="526"></rect><rect width="800" height="12" x="0" y="549"></rect><rect width="800" height="11" x="0" y="571"></rect><rect width="800" height="10" x="0" y="594"></rect><rect width="800" height="9" x="0" y="617"></rect><rect width="800" height="8" x="0" y="640"></rect><rect width="800" height="7" x="0" y="663"></rect><rect width="800" height="6" x="0" y="686"></rect><rect width="800" height="5" x="0" y="709"></rect><rect width="800" height="4" x="0" y="731"></rect><rect width="800" height="3" x="0" y="754"></rect><rect width="800" height="2" x="0" y="777"></rect><rect width="800" height="1" x="0" y="800"></rect></clipPath><clipPath><rect width="800" height="1" x="0" y="36"></rect><rect width="800" height="2" x="0" y="72"></rect><rect width="800" height="3" x="0" y="108"></rect><rect width="800" height="4" x="0" y="144"></rect><rect width="800" height="5" x="0" y="180"></rect><rect width="800" height="6" x="0" y="216"></rect><rect width="800" height="7" x="0" y="252"></rect><rect width="800" height="8" x="0" y="288"></rect><rect width="800" height="9" x="0" y="324"></rect><rect width="800" height="10" x="0" y="360"></rect><rect width="800" height="11" x="0" y="396"></rect><rect width="800" height="12" x="0" y="432"></rect><rect width="800" height="13" x="0" y="468"></rect><rect width="800" height="14" x="0" y="504"></rect><rect width="800" height="15" x="0" y="540"></rect><rect width="800" height="16" x="0" y="576"></rect><rect width="800" height="17" x="0" y="612"></rect><rect width="800" height="18" x="0" y="648"></rect><rect width="800" height="19" x="0" y="684"></rect><rect width="800" height="20" x="0" y="720"></rect><rect width="800" height="21" x="0" y="756"></rect><rect width="800" height="22" x="0" y="792"></rect><rect width="800" height="23" x="0" y="828"></rect></clipPath></defs><rect width="800" height="800" fill="url(#hhhorizon-grad)" clip-path="url(&quot;#SvgjsClipPath1059&quot;)"></rect></svg>