<svg xmlns="http://www.w3.org/2000/svg" version="1.1" xmlns:xlink="http://www.w3.org/1999/xlink" xmlns:svgjs="http://svgjs.dev/svgjs" viewBox="0 0 800 800" opacity="0.38"><defs><linearGradient x1="50%" y1="0%" x2="50%" y2="100%" id="nnneon-grad"><stop stop-color="hsl(205, 69%, 60%)" stop-opacity="1" offset="0%" data-darkreader-inline-stopcolor="" style="--darkreader-inline-stopcolor: #1b6192;"></stop><stop stop-color="hsl(205, 69%, 80%)" stop-opacity="1" offset="100%" data-darkreader-inline-stopcolor="" style="--darkreader-inline-stopcolor: #123f5f;"></stop></linearGradient><filter id="nnneon-filter" x="-100%" y="-100%" width="400%" height="400%" filterUnits="objectBoundingBox" primitiveUnits="userSpaceOnUse" color-interpolation-filters="sRGB">
	<feGaussianBlur stdDeviation="77 77" x="0%" y="0%" width="100%" height="100%" in="SourceGraphic" edgeMode="none" result="blur"></feGaussianBlur></filter><filter id="nnneon-filter2" x="-100%" y="-100%" width="400%" height="400%" filterUnits="objectBoundingBox" primitiveUnits="userSpaceOnUse" color-interpolation-filters="sRGB">
	<feGaussianBlur stdDeviation="77 77" x="0%" y="0%" width="100%" height="100%" in="SourceGraphic" edgeMode="none" result="blur"></feGaussianBlur></filter></defs><g stroke-width="9.5" stroke="url(#nnneon-grad)" fill="none"><path d="M382.564046182319 148.52646887685023C393.35341440469995 142.29834617317456 406.64658559530005 142.29834617317456 417.435953817681 148.52821247223198L609.0640606555228 259.1645702315635C619.8534288779038 265.39269293523915 626.5000144732039 276.905653241054 626.5000144732039 289.3636422437871V510.6363577624502C626.5000144732039 523.0943467651832 619.8534288779038 534.6073070709981 609.0640606555228 540.8371733700556L417.435953817681 651.4735311293871C406.64658559530005 657.7016538330627 393.35341440469995 657.7016538330627 382.564046182319 651.4717875340052L190.93593934447722 540.8354297746738C180.1465711220962 534.6073070709981 173.49998552679614 523.0943467651832 173.49998552679614 510.6363577624502V289.3636422437871C173.49998552679614 276.905653241054 180.1465711220962 265.39269293523915 190.93593934447722 259.16282663618176L382.564046182319 148.52646887685023Z " filter="url(#nnneon-filter)"></path><path d="M384.564046182319 148.52646887685023C395.35341440469995 142.29834617317456 408.64658559530005 142.29834617317456 419.435953817681 148.52821247223198L611.0640606555228 259.1645702315635C621.8534288779038 265.39269293523915 628.5000144732039 276.905653241054 628.5000144732039 289.3636422437871V510.6363577624502C628.5000144732039 523.0943467651832 621.8534288779038 534.6073070709981 611.0640606555228 540.8371733700556L419.435953817681 651.4735311293871C408.64658559530005 657.7016538330627 395.35341440469995 657.7016538330627 384.564046182319 651.4717875340052L192.93593934447722 540.8354297746738C182.1465711220962 534.6073070709981 175.49998552679614 523.0943467651832 175.49998552679614 510.6363577624502V289.3636422437871C175.49998552679614 276.905653241054 182.1465711220962 265.39269293523915 192.93593934447722 259.16282663618176L384.564046182319 148.52646887685023Z " filter="url(#nnneon-filter2)" opacity="1"></path><path d="M380.564046182319 148.52646887685023C391.35341440469995 142.29834617317456 404.64658559530005 142.29834617317456 415.435953817681 148.52821247223198L607.0640606555228 259.1645702315635C617.8534288779038 265.39269293523915 624.5000144732039 276.905653241054 624.5000144732039 289.3636422437871V510.6363577624502C624.5000144732039 523.0943467651832 617.8534288779038 534.6073070709981 607.0640606555228 540.8371733700556L415.435953817681 651.4735311293871C404.64658559530005 657.7016538330627 391.35341440469995 657.7016538330627 380.564046182319 651.4717875340052L188.93593934447722 540.8354297746738C178.1465711220962 534.6073070709981 171.49998552679614 523.0943467651832 171.49998552679614 510.6363577624502V289.3636422437871C171.49998552679614 276.905653241054 178.1465711220962 265.39269293523915 188.93593934447722 259.16282663618176L380.564046182319 148.52646887685023Z " filter="url(#nnneon-filter2)" opacity="1"></path><path d="M382.564046182319 148.52646887685023C393.35341440469995 142.29834617317456 406.64658559530005 142.29834617317456 417.435953817681 148.52821247223198L609.0640606555228 259.1645702315635C619.8534288779038 265.39269293523915 626.5000144732039 276.905653241054 626.5000144732039 289.3636422437871V510.6363577624502C626.5000144732039 523.0943467651832 619.8534288779038 534.6073070709981 609.0640606555228 540.8371733700556L417.435953817681 651.4735311293871C406.64658559530005 657.7016538330627 393.35341440469995 657.7016538330627 382.564046182319 651.4717875340052L190.93593934447722 540.8354297746738C180.1465711220962 534.6073070709981 173.49998552679614 523.0943467651832 173.49998552679614 510.6363577624502V289.3636422437871C173.49998552679614 276.905653241054 180.1465711220962 265.39269293523915 190.93593934447722 259.16282663618176L382.564046182319 148.52646887685023Z "></path></g></svg>