<svg width="200" height="200" viewBox="0 0 200 200" fill="none" xmlns="http://www.w3.org/2000/svg">
<path fill-rule="evenodd" clip-rule="evenodd" d="M100 200C155.228 200 200 155.228 200 100C200 44.7715 155.228 0 100 0C44.7715 0 0 44.7715 0 100C0 155.228 44.7715 200 100 200ZM131.148 37H156.509C158.25 37 158.885 38.2634 158.093 39.3763L114.35 100.388C123.698 113.226 133.053 126.384 142.401 139.536H112.923L99.7715 120.99L69.5011 163.306C69.3374 163.626 68.3882 163.783 68.074 163.783H42.7133C41.1291 163.783 40.4941 162.513 41.4499 161.407L84.8719 100.388C78.2127 91.2437 71.6299 81.9395 65.0146 72.5893C62.3434 68.8138 59.6669 65.0308 56.9779 61.2477H86.4562L99.7715 79.787L129.721 37.4713C129.878 37.1571 130.834 37 131.148 37Z" fill="white"/>
</svg>
