<svg width="151" height="151" viewBox="0 0 151 151" fill="none" xmlns="http://www.w3.org/2000/svg">
<mask id="mask0_1_110" style="mask-type:luminance" maskUnits="userSpaceOnUse" x="0" y="0" width="151" height="151">
<path d="M0 0H150.208V150.057H0V0Z" fill="white"/>
</mask>
<g mask="url(#mask0_1_110)">
<mask id="mask1_1_110" style="mask-type:luminance" maskUnits="userSpaceOnUse" x="0" y="0" width="151" height="150">
<path d="M74.8698 0H75.1719C116.521 0 150.042 33.5208 150.042 74.875C150.042 116.224 116.521 149.745 75.1719 149.745H74.8698C33.5208 149.745 0 116.224 0 74.875C0 33.5208 33.5208 0 74.8698 0Z" fill="white"/>
</mask>
<g mask="url(#mask1_1_110)">
<path d="M0 0H150.208V149.51H0V0Z" fill="black"/>
</g>
</g>
<path d="M119.958 23.3184H99.7811C99.5311 23.3184 98.7707 23.4434 98.6457 23.6934L74.8176 57.36L64.2238 42.61H40.7707C48.2082 53.0736 55.5259 63.5371 62.9634 73.7507L28.4165 122.298C27.6561 123.178 28.1613 124.188 29.4217 124.188H49.5988C49.8488 124.188 50.604 124.063 50.7342 123.808L74.8176 90.1413L85.2811 104.896H108.734C101.297 94.4329 93.854 83.9642 86.4165 73.7507L121.219 25.209C121.849 24.3236 121.344 23.3184 119.958 23.3184Z" fill="white"/>
</svg>
