<svg width="1000" height="1000" viewBox="0 0 1000 1000" fill="none" xmlns="http://www.w3.org/2000/svg">
<path fill-rule="evenodd" clip-rule="evenodd" d="M500 1000C776.142 1000 1000 776.142 1000 500C1000 223.858 776.142 0 500 0C223.858 0 0 223.858 0 500C0 776.142 223.858 1000 500 1000ZM655.787 185H782.59C791.297 185 794.472 191.317 790.512 196.882L571.797 501.942C618.538 566.129 665.312 631.92 712.053 697.679H564.662L498.904 604.949L347.552 816.528C346.733 818.132 341.987 818.917 340.416 818.917H213.613C205.692 818.917 202.517 812.567 207.296 807.036L424.406 501.942C391.11 456.219 358.196 409.698 325.12 362.948C311.764 344.07 298.381 325.154 284.936 306.239H432.327L498.904 398.935L648.652 187.357C649.437 185.786 654.216 185 655.787 185Z" fill="white"/>
</svg>
