<svg fill="none" height="151" viewBox="0 0 792 151" width="792" xmlns="http://www.w3.org/2000/svg" xmlns:xlink="http://www.w3.org/1999/xlink"><mask id="a" height="151" maskUnits="userSpaceOnUse" width="151" x="0" y="0"><path d="m0 0h150.208v150.057h-150.208z" fill="#fff"/></mask><mask id="b" height="150" maskUnits="userSpaceOnUse" width="151" x="0" y="0"><path d="m74.8698 0h.3021c41.3491 0 74.8701 33.5208 74.8701 74.875 0 41.349-33.521 74.87-74.8701 74.87h-.3021c-41.349 0-74.8698-33.521-74.8698-74.87 0-41.3542 33.5208-74.875 74.8698-74.875z" fill="#fff"/></mask><g fill="#fff"><path d="m214.297 112.677c15.588 0 25.885-10.802 25.885-25.8857v-47.0833h-15.187v46.2708c0 7.4375-4.38 12.125-10.698 12.125-6.625 0-11.011-4.7916-11.011-12.125v-1.8385h-15.286v2.651c0 15.0837 11.01 25.8857 26.297 25.8857z"/><path d="m284.712 112.677c16.818 0 29.453-11.719 29.453-28.4325v-44.5365h-15.489v43.8229c0 8.8646-5.813 14.5729-13.964 14.5729-8.255 0-14.062-5.7083-14.062-14.5729v-43.8229h-15.49v44.5365c0 16.7135 12.636 28.4325 29.552 28.4325z"/><path d="m353.398 112.473c14.776 0 27.006-7.437 27.006-22.8278 0-16-13.657-19.3646-24.459-22.1146-7.646-1.8333-13.76-3.3646-13.76-8.3542 0-4.6927 4.995-6.8281 9.989-6.8281 5.808 0 10.907 2.849 10.907 9.0677h15.182c0-14.2656-9.271-23.0312-25.682-23.0312-15.797 0-25.886 7.7448-25.886 21.401 0 15.3906 13.047 18.5469 23.849 21.1979 7.745 1.7292 14.266 3.2604 14.266 8.8646 0 5.3021-5.703 8.3594-11.516 8.3594-6.317 0-12.026-3.3646-12.026-10.1927h-15.588c0 15.286 11.312 24.458 27.718 24.458z"/><path d="m441.952 39.708h-55.13v14.3698h19.87v56.9692h15.391v-56.9692h19.869z"/><path d="m523.987 111.047h16.818l-28.844-71.339h-14.573l-28.021 71.339h16.406l4.891-13.4536h28.333zm-19.156-52.4848 9.375 25.5781h-18.75z"/><path d="m601.133 39.708h-26.906v71.339h26.906c20.995 0 36.177-14.9796 36.177-35.6671s-15.182-35.6719-36.177-35.6719zm-.307 57.0729h-11.209v-42.7031h11.209c12.229 0 20.687 8.6615 20.687 21.3021 0 12.4323-8.458 21.401-20.687 21.401z"/><path d="m665.129 96.7809v-14.6771h24.766v-13.9635h-24.766v-14.1615h27.411v-14.2708h-42.802v71.339h43.927v-14.2661z"/><path d="m789.842 26h-19.781c-.25 0-.99.125-1.115.3698l-23.37 33.0156-10.39-14.4687h-23c7.296 10.2656 14.468 20.5312 21.765 30.5468l-33.885 47.6095c-.74.865-.245 1.854.989 1.854h19.787c.245 0 .989-.125 1.114-.37l23.62-33.0205 10.261 14.4685h23c-7.292-10.2602-14.589-20.5258-21.886-30.5415l34.13-47.6093c.62-.8646.125-1.8542-1.239-1.8542z"/></g><g mask="url(#a)"><g mask="url(#b)"><path d="m0 0h150.208v149.51h-150.208z" fill="#fff"/></g></g><path d="m119.958 23.3184h-20.1769c-.25 0-1.0104.125-1.1354.375l-23.8281 33.6666-10.5938-14.75h-23.4531c7.4375 10.4636 14.7552 20.9271 22.1927 31.1407l-34.5469 48.5473c-.7604.88-.2552 1.89 1.0052 1.89h20.1771c.25 0 1.0052-.125 1.1354-.38l24.0834-33.6667 10.4635 14.7547h23.4529c-7.437-10.4631-14.88-20.9318-22.3175-31.1453l34.8025-48.5417c.63-.8854.125-1.8906-1.261-1.8906z" fill="#000"/></svg>