<?xml version="1.0" encoding="iso-8859-1"?>
<!-- Generator: Adobe Illustrator 19.0.0, SVG Export Plug-In . SVG Version: 6.00 Build 0)  -->
<svg xmlns="http://www.w3.org/2000/svg" xmlns:xlink="http://www.w3.org/1999/xlink" version="1.1" id="Layer_1" x="0px" y="0px" viewBox="0 0 512.003 512.003" style="enable-background:new 0 0 512.003 512.003;" xml:space="preserve">
<path style="fill:#FE9900;" d="M480.619,245.91c12.54-12.212,16.963-30.148,11.548-46.799c-5.319-16.391-19.782-28.59-36.852-31.075  l-103.122-14.979c-0.925-0.134-1.724-0.714-2.138-1.551l-46.116-93.453c-7.751-15.697-23.431-25.448-40.924-25.448  c-17.507,0-33.197,9.751-40.944,25.449l-46.12,93.453c-0.413,0.837-1.212,1.418-2.137,1.551l-103.13,14.979  c-17.064,2.485-31.526,14.679-36.839,31.059c-5.334,16.4-0.803,34.775,11.542,46.813l74.608,72.731  c0.672,0.656,0.979,1.599,0.823,2.52l-17.61,102.704c-2.967,17.244,3.991,34.354,18.163,44.655  c7.857,5.708,17.136,8.726,26.837,8.726c7.366,0,14.713-1.816,21.241-5.252l92.242-48.494c0.813-0.427,1.832-0.429,2.647-0.001  l92.222,48.496c6.529,3.43,13.872,5.242,21.236,5.242c9.714,0,18.996-3.015,26.839-8.714c14.175-10.292,21.136-27.402,18.167-44.646  l-17.609-102.718c-0.157-0.921,0.148-1.861,0.817-2.513L480.619,245.91z"/>
<path style="fill:#EF7A06;" d="M175.7,467c-9.7,0-18.98-3.018-26.837-8.726c-14.171-10.302-21.13-27.411-18.163-44.655  l17.61-102.704c0.156-0.92-0.151-1.863-0.823-2.52l-74.608-72.731c-12.345-12.038-16.875-30.413-11.542-46.813  c2.814-8.677,8.212-16.157,15.188-21.665l-5.843,0.849c-17.064,2.485-31.526,14.679-36.839,31.059  c-5.334,16.4-0.803,34.775,11.542,46.813l74.608,72.731c0.672,0.656,0.979,1.599,0.823,2.52l-17.61,102.704  c-2.967,17.244,3.991,34.354,18.163,44.655c7.857,5.708,17.136,8.726,26.837,8.726c7.366,0,14.713-1.816,21.241-5.252l9.791-5.147  C178.062,466.936,176.881,467,175.7,467z"/>
<path style="fill:#F65C1D;" d="M507.821,194.023c-7.346-22.646-26.554-38.843-50.137-42.276l-96.04-13.95l-42.945-87.027  c-10.54-21.356-31.878-34.624-55.684-34.624c-23.821,0-45.165,13.268-55.702,34.624l-42.952,87.027l-96.043,13.95  c-23.576,3.433-42.786,19.63-50.128,42.267c-7.364,22.646-1.346,47.047,15.705,63.68l69.489,67.739l-16.401,95.645  c-4.031,23.465,5.434,46.742,24.707,60.752c10.684,7.767,23.31,11.873,36.517,11.873c10.028,0,20.028-2.471,28.907-7.143  l85.902-45.162l85.887,45.164c8.879,4.665,18.872,7.132,28.894,7.132c13.216,0,25.849-4.102,36.519-11.859  c19.279-14.001,28.748-37.282,24.714-60.749l-16.402-95.654l69.482-67.736C509.169,241.082,515.189,216.677,507.821,194.023z   M473.096,238.186l-34.93,34.053l-18.488,18.024l-21.196,20.662c-3.211,3.129-4.674,7.636-3.916,12.056l17.609,102.717  c2.268,13.173-3.047,26.238-13.875,34.099c-5.991,4.355-13.081,6.658-20.505,6.658c-5.627,0-11.237-1.387-16.221-4.005  l-92.219-48.494c-3.968-2.088-8.712-2.086-12.679-0.001l-92.246,48.495c-4.989,2.625-10.597,4.014-16.224,4.014  c-7.412,0-14.498-2.307-20.498-6.666c-10.824-7.868-16.141-20.934-13.875-34.106l17.611-102.71  c0.756-4.421-0.709-8.926-3.919-12.058l-74.612-72.734c-9.427-9.194-12.889-23.228-8.815-35.758  c4.06-12.514,15.105-21.825,28.14-23.724l103.124-14.979c4.437-0.645,8.274-3.431,10.258-7.45l46.118-93.452  c5.916-11.989,17.902-19.438,31.275-19.438c13.362,0,25.337,7.449,31.256,19.438l46.116,93.452c1.984,4.02,5.82,6.806,10.256,7.45  l103.122,14.979c13.037,1.899,24.084,11.211,28.146,23.733C486.049,215.161,482.674,228.858,473.096,238.186z"/>
<path style="fill:#231F20;" d="M141.199,502.867c-14.927,0-29.198-4.64-41.272-13.418c-21.779-15.832-32.479-42.141-27.921-68.663  l15.681-91.452l-66.445-64.772C1.97,245.763-4.83,218.186,3.493,192.592c8.298-25.584,30.007-43.889,56.652-47.769l91.839-13.34  l41.071-83.215c11.909-24.138,36.032-39.132,62.954-39.132c26.907,0,51.022,14.994,62.937,39.132l41.064,83.215l91.832,13.34  c26.652,3.879,48.364,22.189,56.666,47.783c8.329,25.603,1.522,53.179-17.763,71.961l-66.437,64.765l15.683,91.464  c4.561,26.524-6.141,52.833-27.931,68.659c-12.06,8.768-26.332,13.403-41.27,13.403c-11.326,0-22.618-2.787-32.654-8.06  l-82.127-43.187l-82.138,43.184C163.834,500.076,152.536,502.867,141.199,502.867z M256.008,25.31  c-20.72,0-39.284,11.54-48.451,30.116l-42.952,87.028c-1.178,2.387-3.456,4.041-6.088,4.423l-96.043,13.951  c-20.507,2.985-37.214,17.071-43.601,36.76c-6.406,19.702-1.172,40.927,13.66,55.395l69.487,67.738  c1.906,1.858,2.775,4.534,2.325,7.157l-16.399,95.645c-3.507,20.412,4.728,40.66,21.492,52.845  c9.293,6.757,20.276,10.327,31.763,10.327c8.723,0,17.417-2.148,25.14-6.212l85.905-45.164c2.358-1.238,5.171-1.239,7.528,0.001  l85.887,45.164c7.723,4.057,16.414,6.203,25.13,6.203c11.499,0,22.483-3.567,31.764-10.313  c16.772-12.181,25.008-32.426,21.499-52.839l-16.402-95.657c-0.451-2.623,0.419-5.299,2.325-7.157l69.482-67.736  c14.842-14.455,20.079-35.675,13.669-55.383c-6.39-19.699-23.101-33.79-43.612-36.774l-96.036-13.951  c-2.633-0.382-4.912-2.037-6.088-4.423l-42.948-87.028C295.274,36.85,276.714,25.31,256.008,25.31z M141.199,475.626  c-9.127,0-17.858-2.839-25.252-8.21c-13.334-9.693-19.88-25.793-17.091-42.018l17.611-102.706c0.306-1.794-0.291-3.628-1.596-4.903  l-74.61-72.732c-11.616-11.327-15.878-28.618-10.859-44.048c4.999-15.413,18.607-26.887,34.663-29.225l103.128-14.979  c1.804-0.262,3.362-1.394,4.168-3.026l46.119-93.453c7.291-14.77,22.052-23.946,38.526-23.946c16.46,0,31.215,9.175,38.508,23.945  l46.116,93.453c0.806,1.635,2.362,2.764,4.167,3.027l103.122,14.979c16.061,2.339,29.672,13.815,34.675,29.239  c5.096,15.669,0.934,32.546-10.864,44.037l-34.928,34.05c-3.198,3.117-8.318,3.052-11.434-0.146  c-3.118-3.198-3.052-8.317,0.146-11.434l34.93-34.053c7.355-7.164,9.948-17.683,6.77-27.458  c-3.121-9.619-11.608-16.773-21.623-18.231l-103.12-14.979c-7.073-1.027-13.183-5.466-16.344-11.875l-46.116-93.451  c-4.547-9.21-13.744-14.931-24.005-14.931c-10.273,0-19.478,5.722-24.024,14.931l-46.118,93.452  c-3.162,6.408-9.273,10.847-16.346,11.874L66.393,187.786c-10.01,1.459-18.494,8.608-21.611,18.217  c-3.131,9.629-0.473,20.412,6.769,27.474l74.611,72.733c5.115,4.991,7.448,12.171,6.245,19.211l-17.612,102.714  c-1.739,10.116,2.346,20.153,10.661,26.198c4.609,3.35,10.054,5.12,15.743,5.12c4.318,0,8.626-1.066,12.46-3.084l92.247-48.496  c6.331-3.327,13.885-3.326,20.208,0.003l92.217,48.494c3.829,2.011,8.138,3.076,12.457,3.076c5.702,0,11.149-1.768,15.75-5.112  c8.318-6.04,12.401-16.072,10.66-26.186l-17.609-102.723c-1.209-7.044,1.126-14.226,6.243-19.213l21.194-20.661  c3.198-3.119,8.316-3.053,11.434,0.146c3.118,3.198,3.052,8.317-0.146,11.434l-21.195,20.662c-1.306,1.272-1.9,3.103-1.592,4.899  l17.609,102.717c2.795,16.227-3.755,32.326-17.093,42.01c-7.379,5.364-16.112,8.199-25.255,8.199  c-6.929,0-13.838-1.706-19.982-4.933l-92.222-48.496c-1.613-0.849-3.537-0.85-5.153,0.001l-92.243,48.495  C155.043,473.916,148.131,475.626,141.199,475.626z"/>
<g>
</g>
<g>
</g>
<g>
</g>
<g>
</g>
<g>
</g>
<g>
</g>
<g>
</g>
<g>
</g>
<g>
</g>
<g>
</g>
<g>
</g>
<g>
</g>
<g>
</g>
<g>
</g>
<g>
</g>
</svg>
