<svg width="1163" height="1163" viewBox="0 0 1163 1163" fill="none" xmlns="http://www.w3.org/2000/svg">
<path d="M581.073 1162.21C901.975 1162.21 1162.12 902.072 1162.12 581.17C1162.12 260.268 901.975 0.125 581.073 0.125C260.171 0.125 0.0280762 260.268 0.0280762 581.17C0.0280762 902.072 260.171 1162.21 581.073 1162.21Z" fill="white"/>
<path fill-rule="evenodd" clip-rule="evenodd" d="M551.899 287.873V503.433C551.899 510.827 557.893 516.82 565.287 516.82C572.681 516.82 578.675 510.827 578.675 503.433V287.873H844.636C861.058 287.873 874.37 301.185 874.37 317.607V573.775H658.494C651.1 573.775 645.106 579.769 645.106 587.163C645.106 594.557 651.1 600.552 658.494 600.552H874.37V844.734C874.37 861.154 861.058 874.467 844.636 874.467H317.509C301.088 874.467 287.776 861.154 287.776 844.734V317.607C287.776 301.185 301.088 287.873 317.509 287.873H551.899ZM578.675 662.179C578.675 654.785 572.681 648.791 565.287 648.791C557.893 648.791 551.899 654.785 551.899 662.179V874.459H578.675V662.179Z" fill="#FF4500"/>
</svg>
