<svg xmlns="http://www.w3.org/2000/svg" version="1.1" xmlns:xlink="http://www.w3.org/1999/xlink" xmlns:svgjs="http://svgjs.dev/svgjs" viewBox="0 0 800 800" opacity="0.38"><defs><linearGradient x1="50%" y1="0%" x2="50%" y2="100%" id="nnneon-grad"><stop stop-color="hsl(205, 69%, 60%)" stop-opacity="1" offset="0%" data-darkreader-inline-stopcolor="" style="--darkreader-inline-stopcolor: #1b6192;"></stop><stop stop-color="hsl(205, 69%, 80%)" stop-opacity="1" offset="100%" data-darkreader-inline-stopcolor="" style="--darkreader-inline-stopcolor: #123f5f;"></stop></linearGradient><filter id="nnneon-filter" x="-100%" y="-100%" width="400%" height="400%" filterUnits="objectBoundingBox" primitiveUnits="userSpaceOnUse" color-interpolation-filters="sRGB">
	<feGaussianBlur stdDeviation="77 77" x="0%" y="0%" width="100%" height="100%" in="SourceGraphic" edgeMode="none" result="blur"></feGaussianBlur></filter><filter id="nnneon-filter2" x="-100%" y="-100%" width="400%" height="400%" filterUnits="objectBoundingBox" primitiveUnits="userSpaceOnUse" color-interpolation-filters="sRGB">
	<feGaussianBlur stdDeviation="77 77" x="0%" y="0%" width="100%" height="100%" in="SourceGraphic" edgeMode="none" result="blur"></feGaussianBlur></filter></defs><g stroke-width="9.5" stroke="url(#nnneon-grad)" fill="none"><path d="M383.6029512050384 181.5458858456223C390.320562899468 167.97162692060405 409.6794318946894 167.97162692060405 416.397043589119 181.5458858456223L624.5789765932032 602.2271711345243C630.5959223619882 614.3854628886579 621.7488716663833 628.6347759300281 608.1837598161123 628.6347759300281H191.8162349780451C178.25112312777406 628.6347759300281 169.40407243216924 614.3854628886579 175.42101820095428 602.2271711345243L383.6029512050384 181.5458858456223Z " filter="url(#nnneon-filter)"></path><path d="M385.6029512050384 181.5458858456223C392.320562899468 167.97162692060405 411.6794318946894 167.97162692060405 418.397043589119 181.5458858456223L626.5789765932032 602.2271711345243C632.5959223619882 614.3854628886579 623.7488716663833 628.6347759300281 610.1837598161123 628.6347759300281H193.8162349780451C180.25112312777406 628.6347759300281 171.40407243216924 614.3854628886579 177.42101820095428 602.2271711345243L385.6029512050384 181.5458858456223Z " filter="url(#nnneon-filter2)" opacity="1"></path><path d="M381.6029512050384 181.5458858456223C388.320562899468 167.97162692060405 407.6794318946894 167.97162692060405 414.397043589119 181.5458858456223L622.5789765932032 602.2271711345243C628.5959223619882 614.3854628886579 619.7488716663833 628.6347759300281 606.1837598161123 628.6347759300281H189.8162349780451C176.25112312777406 628.6347759300281 167.40407243216924 614.3854628886579 173.42101820095428 602.2271711345243L381.6029512050384 181.5458858456223Z " filter="url(#nnneon-filter2)" opacity="1"></path><path d="M383.6029512050384 181.5458858456223C390.320562899468 167.97162692060405 409.6794318946894 167.97162692060405 416.397043589119 181.5458858456223L624.5789765932032 602.2271711345243C630.5959223619882 614.3854628886579 621.7488716663833 628.6347759300281 608.1837598161123 628.6347759300281H191.8162349780451C178.25112312777406 628.6347759300281 169.40407243216924 614.3854628886579 175.42101820095428 602.2271711345243L383.6029512050384 181.5458858456223Z "></path></g></svg>