<svg width="100" height="73" viewBox="0 0 100 73" fill="none" xmlns="http://www.w3.org/2000/svg">
<path d="M86.3636 9.09091C86.3636 9.09091 75.9432 0.936364 63.6364 0L62.5273 2.21818C73.6545 4.94091 78.7591 8.84318 84.0909 13.6364C74.8977 8.94318 65.8205 4.54545 50 4.54545C34.1795 4.54545 25.1023 8.94318 15.9091 13.6364C21.2409 8.84318 27.3136 4.51136 37.4727 2.21818L36.3636 0C23.4523 1.22045 13.6364 9.09091 13.6364 9.09091C13.6364 9.09091 1.99773 25.9659 0 59.0909C11.7318 72.6205 29.5455 72.7273 29.5455 72.7273L33.2705 67.7614C26.9477 65.5636 19.8068 61.6386 13.6364 54.5455C20.9955 60.1136 32.1023 65.9091 50 65.9091C67.8977 65.9091 79.0045 60.1136 86.3636 54.5455C80.1932 61.6386 73.0523 65.5636 66.7295 67.7614L70.4545 72.7273C70.4545 72.7273 88.2682 72.6205 100 59.0909C98.0023 25.9659 86.3636 9.09091 86.3636 9.09091ZM35.2273 50C30.8341 50 27.2727 45.9295 27.2727 40.9091C27.2727 35.8886 30.8341 31.8182 35.2273 31.8182C39.6205 31.8182 43.1818 35.8886 43.1818 40.9091C43.1818 45.9295 39.6205 50 35.2273 50ZM64.7727 50C60.3795 50 56.8182 45.9295 56.8182 40.9091C56.8182 35.8886 60.3795 31.8182 64.7727 31.8182C69.1659 31.8182 72.7273 35.8886 72.7273 40.9091C72.7273 45.9295 69.1659 50 64.7727 50Z" fill="#8C9EFF"/>
</svg>
