<svg width="100" height="100" viewBox="0 0 100 100" fill="none" xmlns="http://www.w3.org/2000/svg">
<path d="M50 0C36.7392 0 24.0215 5.26784 14.6447 14.6447C5.26784 24.0215 0 36.7392 0 50C0 63.2608 5.26784 75.9785 14.6447 85.3553C24.0215 94.7322 36.7392 100 50 100C63.2608 100 75.9785 94.7322 85.3553 85.3553C94.7322 75.9785 100 63.2608 100 50C100 36.7392 94.7322 24.0215 85.3553 14.6447C75.9785 5.26784 63.2608 0 50 0Z" fill="#29B6F6"/>
<path d="M74.875 27.5L65.51 75.315C65.51 75.315 65.1075 77.5 62.3975 77.5C60.9575 77.5 60.215 76.815 60.215 76.815L39.93 59.9825L30.005 54.98L17.2675 51.5925C17.2675 51.5925 15 50.9375 15 49.0625C15 47.5 17.3325 46.755 17.3325 46.755L70.6225 25.585C70.6225 25.585 72.25 24.9975 73.4375 25C74.1675 25 75 25.3125 75 26.25C75 26.875 74.875 27.5 74.875 27.5Z" fill="white"/>
<path d="M47.5 66.2625L38.935 74.6975C38.935 74.6975 38.5625 74.985 38.065 74.9975C37.8925 75.0025 37.7075 74.975 37.5175 74.89L39.9275 59.9775L47.5 66.2625Z" fill="#B0BEC5"/>
<path d="M64.7425 35.49C64.32 34.94 63.54 34.84 62.99 35.2575L30 55C30 55 35.265 69.73 36.0675 72.28C36.8725 74.8325 37.5175 74.8925 37.5175 74.8925L39.9275 59.98L64.5075 37.24C65.0575 36.8225 65.16 36.04 64.7425 35.49Z" fill="#CFD8DC"/>
</svg>
