<svg width="100" height="100" viewBox="0 0 100 100" fill="none" xmlns="http://www.w3.org/2000/svg">
<path fill-rule="evenodd" clip-rule="evenodd" d="M88.8889 100H11.1111C4.975 100 0 95.025 0 88.8889V11.1111C0 4.975 4.975 0 11.1111 0H88.8889C95.025 0 100 4.975 100 11.1111V88.8889C100 95.025 95.025 100 88.8889 100Z" fill="#212121"/>
<path d="M78.4917 77.7777H60.6111L21.7473 22.2222H39.6278L78.4917 77.7777ZM62.7417 73.0666H69.8611L37.4973 26.9333H30.3778L62.7417 73.0666Z" fill="white"/>
<path d="M27.4056 77.7777L47.4139 54.5999L44.7972 51.1305L21.7306 77.7777H27.4056Z" fill="white"/>
<path d="M51.25 43.6694L53.7639 47.2499L75.3778 22.2222H69.8223L51.25 43.6694Z" fill="white"/>
</svg>
